<svg id="jbmRGk" xmlns="http://www.w3.org/2000/svg" width="30" height="29.998" viewBox="0 0 30 29.998">
  <g id="Grupo_82" data-name="Grupo 82">
    <path id="Trazado_394" data-name="Trazado 394" d="M232.618,580.514H219.137c-.034-.006-.071-.014-.108-.017-.262-.029-.523-.043-.782-.082a8.6,8.6,0,0,1-2.361-.723,8.688,8.688,0,0,1-3.675-3.251,8.383,8.383,0,0,1-1.337-4.54q-.013-6.384,0-12.767a7.994,7.994,0,0,1,.333-2.29,8.635,8.635,0,0,1,3.966-5.121,8.293,8.293,0,0,1,4.327-1.2q6.332-.009,12.665,0c.262,0,.523.017.785.037a7.866,7.866,0,0,1,2.077.444,8.675,8.675,0,0,1,4.7,3.912,8.381,8.381,0,0,1,1.109,3.53c.011.108.026.216.037.324v13.5c-.011.108-.026.216-.037.324a8.236,8.236,0,0,1-.481,2.173,8.663,8.663,0,0,1-3.326,4.261,8.524,8.524,0,0,1-4.082,1.457C232.835,580.489,232.727,580.5,232.618,580.514Zm-6.751-27.688v0c-2.051,0-4.1,0-6.15,0a9.182,9.182,0,0,0-.925.051,5.727,5.727,0,0,0-2.276.722,6.224,6.224,0,0,0-3.331,5.644c-.031,4.182-.009,8.364-.009,12.543a6.524,6.524,0,0,0,.182,1.539,6.383,6.383,0,0,0,6.179,4.882q6.268,0,12.534,0a7.78,7.78,0,0,0,1.146-.091,6.032,6.032,0,0,0,3.047-1.394,6.252,6.252,0,0,0,2.293-4.947q.017-6.256,0-12.514a7.322,7.322,0,0,0-.1-1.144,6.088,6.088,0,0,0-1.351-2.953,6.213,6.213,0,0,0-4.87-2.33C230.115,552.8,227.99,552.826,225.868,552.826Z" transform="translate(-210.868 -550.516)" fill="#00cb6e"/>
    <path id="Trazado_395" data-name="Trazado 395" d="M213.3,561.025a8.078,8.078,0,1,1,8.042,8.082A8.1,8.1,0,0,1,213.3,561.025Zm8.079-5.764a5.766,5.766,0,1,0,5.766,5.769A5.747,5.747,0,0,0,221.381,555.262Z" transform="translate(-206.379 -546.027)" fill="#00cb6e"/>
    <path id="Trazado_396" data-name="Trazado 396" d="M220.312,552.138a1.732,1.732,0,1,1-1.738,1.721A1.732,1.732,0,0,1,220.312,552.138Z" transform="translate(-196.653 -547.523)" fill="#00cb6e"/>
  </g>
</svg>
