<svg id="q6BbNZ" xmlns="http://www.w3.org/2000/svg" width="30" height="30" viewBox="0 0 30 30">
  <g id="Grupo_81" data-name="Grupo 81">
    <path id="Trazado_393" data-name="Trazado 393" d="M147.937,564.436v2.3c-.078.056-.048.143-.056.216a12.1,12.1,0,0,1-.21,1.486,14.931,14.931,0,0,1-8.355,10.771,13.783,13.783,0,0,1-4.018,1.244,1.671,1.671,0,0,1-.02-.185q0-5.065,0-10.128c0-.182.05-.23.229-.228,1.007.006,2.013,0,3.017.009.193,0,.266-.045.3-.247.179-1.25.378-2.5.568-3.748.056-.368.053-.368-.319-.368-1.18,0-2.363,0-3.546,0-.185,0-.252-.042-.249-.242.014-.91-.006-1.824.02-2.736a2.065,2.065,0,0,1,1.957-2.163,17.013,17.013,0,0,1,2.108-.039c.2,0,.263-.048.263-.259-.011-1.068-.008-2.138,0-3.208,0-.177-.039-.259-.226-.284a15.71,15.71,0,0,0-4.169-.194,5.01,5.01,0,0,0-3.313,1.686A5.793,5.793,0,0,0,130.6,561.9c-.025,1.13-.011,2.256,0,3.385,0,.219-.053.281-.274.278-1.085-.011-2.167,0-3.252-.011-.224,0-.3.048-.294.287q.017,1.9,0,3.8c0,.244.081.284.3.284,1.085-.011,2.167,0,3.252-.009.19,0,.271.028.271.247q-.013,5.036,0,10.069c0,.18-.025.231-.224.2a15.117,15.117,0,0,1-7.807-25.759,14.993,14.993,0,0,1,25.146,8.246C147.806,563.413,147.861,563.925,147.937,564.436Z" transform="translate(-117.937 -550.45)" fill="#00cb6e"/>
  </g>
</svg>
