<svg xmlns="http://www.w3.org/2000/svg" width="536" height="408.162" viewBox="0 0 536 408.162">
  <g id="Grupo_86" data-name="Grupo 86" transform="translate(-139 -56.09)">
    <g id="Componente_2_1" data-name="Componente 2 – 1" transform="translate(139 238)">
      <g id="Grupo_2" data-name="Grupo 2" transform="translate(15.384 111.593)">
        <path id="Trazado_5" data-name="Trazado 5" d="M144.727,267.326l-6.564,33.642-37.509,4.7-7.5,38.45-32.821,4.116,7.5-38.45-37.509,4.7,6.564-33.642,37.509-4.7,7.5-38.451,32.82-4.116-7.5,38.451Z" transform="translate(-30.324 -233.579)" fill="#00cb6e"/>
      </g>
      <g id="Grupo_3" data-name="Grupo 3" transform="translate(110.289 69.179)">
        <path id="Trazado_6" data-name="Trazado 6" d="M134.986,236.614l17.056-2.139-27.635,53.912-17.271,2.166L96.341,241.46l17.848-2.238,4.965,32.409Z" transform="translate(-96.341 -190.774)" fill="#fff"/>
        <path id="Trazado_7" data-name="Trazado 7" d="M179.311,243.608l-25.979,3.258-1.3,6.351,23.676-2.969-2.519,12.981-23.677,2.97-1.3,6.423,26.7-3.348-2.52,12.981-43.323,5.433,10.076-51.711,42.675-5.351Z" transform="translate(-82.015 -192.458)" fill="#fff"/>
        <path id="Trazado_8" data-name="Trazado 8" d="M181.871,266.189l21.015-2.635-2.808,14.241-37.709,4.73,10.075-51.711,16.7-2.095Z" transform="translate(-67.448 -193.293)" fill="#fff"/>
        <path id="Trazado_9" data-name="Trazado 9" d="M235.9,225.385a18.532,18.532,0,0,1,8.887,7.342,21.794,21.794,0,0,1,3.167,11.909,30.32,30.32,0,0,1-4.03,15.223A34.425,34.425,0,0,1,232.915,271.6a35.463,35.463,0,0,1-15.473,5.719,25.518,25.518,0,0,1-13.132-1.448,18.609,18.609,0,0,1-8.889-7.45,22.149,22.149,0,0,1-3.167-11.981,30.1,30.1,0,0,1,4.031-15.187A33.883,33.883,0,0,1,207.3,229.62a35.966,35.966,0,0,1,15.473-5.647A25.8,25.8,0,0,1,235.9,225.385Zm-20.223,15.167a16.259,16.259,0,0,0-4.5,5.493,15.245,15.245,0,0,0-1.727,7.089,11.7,11.7,0,0,0,1.3,5.6,8.623,8.623,0,0,0,3.49,3.628,7.728,7.728,0,0,0,4.786.875,11.413,11.413,0,0,0,5.793-2.562,15.755,15.755,0,0,0,4.317-5.543,16.364,16.364,0,0,0,1.62-7.184,10.7,10.7,0,0,0-2.628-7.622,7.3,7.3,0,0,0-6.584-2.306A11.925,11.925,0,0,0,215.679,240.552Z" transform="translate(-54.371 -195.485)" fill="#fff"/>
        <path id="Trazado_10" data-name="Trazado 10" d="M272.852,220.215a21.373,21.373,0,0,1,9.068,5.664l-10.867,12.8a13.424,13.424,0,0,0-4.858-4.392,9.73,9.73,0,0,0-5.865-1.172,11.9,11.9,0,0,0-5.9,2.467,14.741,14.741,0,0,0-4.245,5.318,15.79,15.79,0,0,0-1.584,7,10.441,10.441,0,0,0,2.591,7.484,7.424,7.424,0,0,0,6.693,2.218,15.53,15.53,0,0,0,6.045-2.376,27.975,27.975,0,0,0,6.045-5.04l8.564,9.216a42.956,42.956,0,0,1-10.9,8.817,32.658,32.658,0,0,1-12.054,4.281,23.727,23.727,0,0,1-12.631-1.509,18.08,18.08,0,0,1-8.526-7.5,23.057,23.057,0,0,1-3.023-12,30.164,30.164,0,0,1,3.994-15.11,34.045,34.045,0,0,1,10.9-11.659,34.949,34.949,0,0,1,15.256-5.654A25.216,25.216,0,0,1,272.852,220.215Z" transform="translate(-37.241 -197.6)" fill="#fff"/>
        <path id="Trazado_11" data-name="Trazado 11" d="M290.761,215.975l-10.076,51.711-16.7,2.093,10.076-51.711Z" transform="translate(-22.981 -198.869)" fill="#fff"/>
        <path id="Trazado_12" data-name="Trazado 12" d="M323.953,214.85a15.538,15.538,0,0,1,8.312,6.875,20.756,20.756,0,0,1,2.411,11.679,31.469,31.469,0,0,1-4.642,15.155A33.69,33.69,0,0,1,318.7,259.732a40.319,40.319,0,0,1-16.193,5.484l-23.1,2.9,10-51.7,21.374-2.68A27.591,27.591,0,0,1,323.953,214.85Zm-8.887,14q-2.413-2.4-6.657-1.865l-4.893.614-4.822,25.145,6.837-.857a12.075,12.075,0,0,0,6.117-2.6,14.675,14.675,0,0,0,4.283-5.719,19.246,19.246,0,0,0,1.547-7.786Q317.477,231.242,315.066,228.847Z" transform="translate(-16.234 -199.983)" fill="#fff"/>
        <path id="Trazado_13" data-name="Trazado 13" d="M353.216,259.353l-1.3-6.962-18.927,2.375-3.814,7.6L312.2,264.5l29.65-54.167,17.127-2.148,12.162,48.922Zm-13.889-17.329,10.506-1.317-2.661-14.347Z" transform="translate(-1.886 -202.278)" fill="#fff"/>
        <path id="Trazado_14" data-name="Trazado 14" d="M398.542,205.5a15.537,15.537,0,0,1,8.312,6.874,20.771,20.771,0,0,1,2.411,11.679,31.485,31.485,0,0,1-4.642,15.155,33.7,33.7,0,0,1-11.334,11.173,40.328,40.328,0,0,1-16.193,5.486l-23.1,2.9,10-51.7,21.374-2.68A27.591,27.591,0,0,1,398.542,205.5Zm-8.887,14q-2.413-2.4-6.657-1.863l-4.894.614-4.822,25.145,6.836-.858a12.062,12.062,0,0,0,6.118-2.6,14.658,14.658,0,0,0,4.281-5.719,19.217,19.217,0,0,0,1.548-7.786Q392.066,221.888,389.655,219.493Z" transform="translate(16.405 -204.076)" fill="#fff"/>
      </g>
      <g id="Grupo_4" data-name="Grupo 4">
        <path id="Trazado_15" data-name="Trazado 15" d="M44.532,196.823l-9.374,48.113-15.535,1.948L29,198.771Z" transform="translate(-19.623 -138.07)" fill="#fff"/>
        <path id="Trazado_16" data-name="Trazado 16" d="M74.833,194.169l14.061-1.762L79.519,240.52l-12.989,1.629-13.66-22.258-4.822,24.577-14.127,1.771L43.3,198.126l12.99-1.63L70.011,218.88Z" transform="translate(-13.366 -140.003)" fill="#fff"/>
        <path id="Trazado_17" data-name="Trazado 17" d="M110.045,189.755l14.061-1.764-9.374,48.115-12.99,1.629L88.083,215.476l-4.822,24.576-14.129,1.771,9.374-48.113,12.99-1.629,13.726,22.383Z" transform="translate(2.042 -141.935)" fill="#fff"/>
        <path id="Trazado_18" data-name="Trazado 18" d="M146.725,186.361a17.247,17.247,0,0,1,8.27,6.831,20.289,20.289,0,0,1,2.946,11.079,28.212,28.212,0,0,1-3.749,14.165,32.018,32.018,0,0,1-10.246,10.926,33,33,0,0,1-14.4,5.322,23.748,23.748,0,0,1-12.219-1.347,17.306,17.306,0,0,1-8.27-6.932,20.612,20.612,0,0,1-2.946-11.147,28.018,28.018,0,0,1,3.749-14.13A31.543,31.543,0,0,1,120.11,190.3a33.465,33.465,0,0,1,14.4-5.253A23.99,23.99,0,0,1,146.725,186.361ZM127.91,200.473a15.124,15.124,0,0,0-4.185,5.112,14.192,14.192,0,0,0-1.607,6.6,10.905,10.905,0,0,0,1.2,5.205,8.023,8.023,0,0,0,3.248,3.375,7.192,7.192,0,0,0,4.454.815,10.63,10.63,0,0,0,5.39-2.383,14.656,14.656,0,0,0,4.018-5.158,15.224,15.224,0,0,0,1.507-6.683,9.959,9.959,0,0,0-2.444-7.093,6.786,6.786,0,0,0-6.127-2.143A11.079,11.079,0,0,0,127.91,200.473Z" transform="translate(18.225 -143.33)" fill="#fff"/>
        <path id="Trazado_19" data-name="Trazado 19" d="M180.219,180.835l15.87-1.991-25.713,50.163L154.3,231.023l-10.043-45.679,16.606-2.082,4.62,30.155Z" transform="translate(34.917 -145.938)" fill="#fff"/>
        <path id="Trazado_20" data-name="Trazado 20" d="M207.3,224.06l-1.2-6.479-17.61,2.208-3.549,7.074-15.8,1.982,27.587-50.4,15.936-2,11.317,45.52Zm-12.922-16.124,9.776-1.226-2.477-13.348Z" transform="translate(45.801 -146.986)" fill="#fff"/>
        <path id="Trazado_21" data-name="Trazado 21" d="M247.386,173.24a19.881,19.881,0,0,1,8.437,5.27l-10.111,11.913a12.522,12.522,0,0,0-4.52-4.087,9.076,9.076,0,0,0-5.457-1.09,11.094,11.094,0,0,0-5.49,2.3,13.731,13.731,0,0,0-3.952,4.948A14.707,14.707,0,0,0,224.821,199a9.714,9.714,0,0,0,2.411,6.964,6.906,6.906,0,0,0,6.228,2.064,14.44,14.44,0,0,0,5.622-2.212,25.966,25.966,0,0,0,5.625-4.689l7.969,8.577a39.922,39.922,0,0,1-10.144,8.2,30.376,30.376,0,0,1-11.216,3.985,22.065,22.065,0,0,1-11.751-1.406,16.826,16.826,0,0,1-7.935-6.972,21.463,21.463,0,0,1-2.812-11.164,28.075,28.075,0,0,1,3.716-14.06,31.671,31.671,0,0,1,10.144-10.847,32.541,32.541,0,0,1,14.2-5.263A23.479,23.479,0,0,1,247.386,173.24Z" transform="translate(63.166 -148.936)" fill="#fff"/>
        <path id="Trazado_22" data-name="Trazado 22" d="M264.048,169.294l-9.373,48.115-15.536,1.948,9.376-48.115Z" transform="translate(76.434 -150.117)" fill="#fff"/>
        <path id="Trazado_23" data-name="Trazado 23" d="M295.818,172.107a17.251,17.251,0,0,1,8.269,6.831,20.282,20.282,0,0,1,2.946,11.081,28.192,28.192,0,0,1-3.749,14.163,32.044,32.044,0,0,1-10.244,10.927,32.989,32.989,0,0,1-14.4,5.321,23.753,23.753,0,0,1-12.221-1.347,17.3,17.3,0,0,1-8.27-6.931,20.618,20.618,0,0,1-2.944-11.147,28.012,28.012,0,0,1,3.748-14.13A31.548,31.548,0,0,1,269.2,176.047a33.473,33.473,0,0,1,14.4-5.253A24,24,0,0,1,295.818,172.107ZM277,186.218a15.141,15.141,0,0,0-4.185,5.112,14.192,14.192,0,0,0-1.607,6.6,10.888,10.888,0,0,0,1.206,5.205,8.02,8.02,0,0,0,3.246,3.375,7.182,7.182,0,0,0,4.454.815,10.61,10.61,0,0,0,5.391-2.384,14.64,14.64,0,0,0,4.017-5.158,15.22,15.22,0,0,0,1.507-6.683,9.953,9.953,0,0,0-2.444-7.092,6.786,6.786,0,0,0-6.126-2.145A11.089,11.089,0,0,0,277,186.218Zm8.538-30.264,11.317,2.6-10.848,10-9.508.522Z" transform="translate(83.465 -155.954)" fill="#fff"/>
        <path id="Trazado_24" data-name="Trazado 24" d="M330.773,162.075l14.061-1.764-9.373,48.113-12.991,1.63L308.811,187.8l-4.822,24.576-14.129,1.771,9.374-48.113,12.99-1.629,13.728,22.383Z" transform="translate(98.629 -154.047)" fill="#fff"/>
      </g>
    </g>
    <g id="Componente_3_1" data-name="Componente 3 – 1" transform="translate(139 56.09)">
      <g id="Grupo_6" data-name="Grupo 6" transform="translate(0 7.39)">
        <path id="Trazado_25" data-name="Trazado 25" d="M339.442,203.785,287.13,69.177l-38.217,75.609L224.229,77.031l-51.215,6.4-9.789,102.554L141.777,87.326,99.235,92.639,19.315,243.76l93.524-11.679L126.3,194.76l7.4,34.717,66.549-8.311,7.359-80.278,32.931,92.183,51.2-102.69-7.363,80.28,55.067-6.876,4.325-62.277-31.422,3.924,41.994-84.555ZM83.2,200.1l30.105-66.341,12.987,60.961Z" transform="translate(-19.315 -60.876)" fill="#fff"/>
      </g>
      <path id="Trazado_26" data-name="Trazado 26" d="M228.306,63.785l-5.977,61.956,34.658-4.328-43.577,85.281,48.418-6.047,3.215-32.273,18.217-2.276c22.253-2.777,41.586-18.671,49.977-39.284a66.767,66.767,0,0,0,3.3-33.17c-3.675-24.382-26.792-40.12-53.285-36.812Z" transform="translate(106.718 -56.395)" fill="#fff"/>
      <path id="Trazado_27" data-name="Trazado 27" d="M224.07,203.731l4.325-62.278-31.422,3.924,41.994-84.555-5.977,61.956,34.658-4.328Z" transform="translate(96.046 -53.521)" fill="#00cb6e"/>
    </g>
  </g>
</svg>
