<svg id="Componente_12_1" data-name="Componente 12 – 1" xmlns="http://www.w3.org/2000/svg" width="98.867" height="35.078" viewBox="0 0 98.867 35.078">
  <g id="Grupo_83" data-name="Grupo 83">
    <path id="Trazado_397" data-name="Trazado 397" d="M470.245,365.717,458.6,334.4l-8.511,15.72-5.495-15.72h-11.4l-2.183,22.486L426.235,334.4H416.76l-17.8,31.32h20.825l3-7.909,1.647,7.909h14.819l1.639-17.61,7.331,21.368,11.4-21.368-1.642,17.61h12.261l.965-13.7h-7l9.352-17.6Zm-45.411,23.4,6.705-13.887,2.89,13.887Z" transform="translate(-398.963 -334.397)" fill="#fff"/>
  </g>
  <path id="Trazado_398" data-name="Trazado 398" d="M459.337,334.417,458,348h7.717l-9.705,17.716H466.8l.716-7.073h4.057a12.117,12.117,0,0,0,11.128-7.333,14.071,14.071,0,0,0,.736-7.269c-.818-5.512-5.966-9.645-11.864-9.645Z" transform="translate(-384.735 -334.397)" fill="#fff"/>
  <path id="Trazado_399" data-name="Trazado 399" d="M457.219,365.7l.964-13.7h-7l9.352-17.6-1.332,13.583h7.717Z" transform="translate(-385.939 -334.397)" fill="#00cb6e"/>
</svg>
